<svg width="84" height="84" viewBox="0 0 84 84" xmlns="http://www.w3.org/2000/svg" xmlns:xlink="http://www.w3.org/1999/xlink"><title>Logo - Salmon</title><defs><path d="M74 42c0-8.64-5.04-16.04-12.28-19.64C58.04 14.84 50.4 10 42 10c-8.64 0-16.04 5.04-19.64 12.28C14.84 25.96 10 33.6 10 42c0 8.64 5.04 16.04 12.28 19.64C25.96 69.16 33.6 74 42 74c8.64 0 16.04-5.04 19.64-12.28C69.16 58.04 74 50.4 74 42zm-25.36-6.72C49.52 37.44 50 39.68 50 42c0 2.36-.48 4.6-1.28 6.64-2.16.88-4.4 1.36-6.72 1.36-2.36 0-4.6-.48-6.64-1.28C34.48 46.56 34 44.32 34 42c0-2.36.48-4.6 1.28-6.64C37.44 34.48 39.68 34 42 34c2.36 0 4.56.48 6.64 1.28zM42.127 14c5.24 0 10.164 2.324 13.473 6.224a22.134 22.134 0 0 0-3.624-.315c-8.785 0-16.31 5.24-19.737 12.764H32.2v.079a21.365 21.365 0 0 0-1.89 8.824c0 1.221.117 2.442.314 3.624-3.86-3.31-6.224-8.233-6.224-13.473C24.4 21.957 32.358 14 42.127 14zM14 41.873c0-5.24 2.324-10.164 6.224-13.473a22.134 22.134 0 0 0-.315 3.624c0 8.785 5.24 16.31 12.764 19.737v.039h.079a21.365 21.365 0 0 0 8.824 1.89c1.221 0 2.442-.117 3.624-.314-3.31 3.86-8.233 6.224-13.473 6.224C21.957 59.6 14 51.642 14 41.873zM41.873 69.2A17.693 17.693 0 0 1 28.4 62.976c1.182.197 2.403.315 3.624.315 8.785 0 16.31-5.24 19.737-12.764h.039v-.079a21.365 21.365 0 0 0 1.89-8.824c0-1.221-.117-2.442-.314-3.624 3.86 3.31 6.224 8.233 6.224 13.473 0 9.77-7.958 17.727-17.727 17.727zm8.654-36.96c-2.797-1.261-5.751-1.93-8.903-1.93-1.221 0-2.442.117-3.624.314 3.31-3.86 8.233-6.224 13.473-6.224 9.77 0 17.727 7.958 17.727 17.727 0 5.24-2.324 10.164-6.224 13.473.197-1.182.315-2.403.315-3.624 0-8.785-5.24-16.31-12.764-19.737z" id="b"/><filter x="-23.4%" y="-23.4%" width="146.9%" height="146.9%" filterUnits="objectBoundingBox" id="a"><feOffset in="SourceAlpha" result="shadowOffsetOuter1"/><feGaussianBlur stdDeviation="5" in="shadowOffsetOuter1" result="shadowBlurOuter1"/><feColorMatrix values="0 0 0 0 0 0 0 0 0 0 0 0 0 0 0 0 0 0 0.5 0" in="shadowBlurOuter1"/></filter></defs><g fill="none" fill-rule="evenodd"><use fill="#000" filter="url(#a)" xlink:href="#b"/><use fill="#FDFDFD" xlink:href="#b"/></g></svg>